<?xml version="1.0" encoding="UTF-8" ?>
<!DOCTYPE svg PUBLIC "-//W3C//DTD SVG 1.1//EN" "http://www.w3.org/Graphics/SVG/1.1/DTD/svg11.dtd">
<svg viewBox="0 0 110 110" version="1.1" xmlns="http://www.w3.org/2000/svg">
<g id="#0000004d">
<path fill="#000000" opacity="0.30" d=" M 38.35 0.00 L 72.24 0.00 C 80.10 6.08 88.03 12.07 95.99 18.02 C 97.95 19.43 99.79 21.17 100.40 23.60 C 103.60 33.61 106.42 43.77 110.00 53.66 L 110.00 57.11 C 106.90 64.96 104.61 73.09 102.02 81.12 C 100.84 84.59 100.27 88.73 97.02 90.96 C 88.80 97.25 80.69 103.68 72.50 110.00 L 37.68 110.00 C 29.31 103.44 20.87 96.98 12.43 90.51 C 9.42 88.34 8.92 84.42 7.79 81.14 C 5.23 73.17 3.12 65.04 0.00 57.25 L 0.00 53.68 C 3.52 43.68 6.27 33.43 9.48 23.34 C 10.27 20.44 13.01 18.87 15.24 17.16 C 23.05 11.59 30.40 5.38 38.35 0.00 M 38.41 3.16 C 29.71 9.61 21.22 16.36 12.32 22.54 C 8.95 33.44 5.73 44.38 2.46 55.30 C 5.64 65.79 8.76 76.32 12.21 86.72 C 19.52 93.14 27.64 98.65 35.22 104.78 C 36.65 105.78 38.00 107.36 39.92 107.22 C 49.95 107.25 59.98 107.24 70.01 107.22 C 71.41 107.40 72.49 106.39 73.54 105.66 C 80.99 99.76 88.49 93.91 95.99 88.07 C 97.34 87.22 97.72 85.61 98.19 84.19 C 100.97 75.10 104.03 66.10 106.85 57.03 C 107.70 55.00 106.58 52.95 106.07 51.00 C 102.97 41.65 100.30 32.16 97.10 22.86 C 88.97 15.77 79.86 9.77 71.49 2.92 C 64.03 2.05 56.48 2.75 48.99 2.53 C 45.48 2.73 41.78 1.95 38.41 3.16 Z" />
</g>
<g id="#c3c3c3ff">
<path fill="#c3c3c3" opacity="1.00" d=" M 38.41 3.16 C 41.78 1.95 45.48 2.73 48.99 2.53 C 56.48 2.75 64.03 2.05 71.49 2.92 C 70.81 4.62 70.11 6.31 69.41 7.99 C 60.58 7.89 51.74 7.93 42.91 7.93 C 41.24 7.76 39.81 8.63 38.56 9.62 C 32.16 14.54 25.73 19.41 19.27 24.25 C 17.98 25.25 16.48 26.25 16.13 27.98 C 13.41 37.07 10.62 46.16 7.96 55.27 C 6.12 55.28 4.29 55.29 2.46 55.30 C 5.73 44.38 8.95 33.44 12.32 22.54 C 21.22 16.36 29.71 9.61 38.41 3.16 Z" />
</g>
<g id="#8b8b8bff">
<path fill="#8b8b8b" opacity="1.00" d=" M 71.49 2.92 C 79.86 9.77 88.97 15.77 97.10 22.86 C 100.30 32.16 102.97 41.65 106.07 51.00 C 106.58 52.95 107.70 55.00 106.85 57.03 C 104.03 66.10 100.97 75.10 98.19 84.19 C 97.72 85.61 97.34 87.22 95.99 88.07 C 88.49 93.91 80.99 99.76 73.54 105.66 C 72.49 106.39 71.41 107.40 70.01 107.22 C 59.98 107.24 49.95 107.25 39.92 107.22 C 38.00 107.36 36.65 105.78 35.22 104.78 C 27.64 98.65 19.52 93.14 12.21 86.72 C 8.76 76.32 5.64 65.79 2.46 55.30 C 4.29 55.29 6.12 55.28 7.96 55.27 C 11.17 64.70 13.53 74.45 17.05 83.74 C 22.65 88.89 29.12 93.06 35.01 97.89 C 37.45 99.65 39.73 102.38 43.04 102.10 C 51.05 102.10 59.06 102.09 67.07 102.10 C 68.99 102.27 70.73 101.41 72.15 100.19 C 78.42 95.11 84.87 90.23 91.19 85.22 C 93.19 83.82 93.65 81.31 94.38 79.15 C 96.62 71.79 99.18 64.52 101.47 57.18 C 102.10 55.46 101.42 53.69 100.95 52.03 C 98.40 44.17 95.90 36.29 93.47 28.39 C 93.05 26.70 91.88 25.40 90.51 24.39 C 83.46 18.95 76.36 13.56 69.41 7.99 C 70.11 6.31 70.81 4.62 71.49 2.92 Z" />
</g>
<g id="#10110eff">
<path fill="#10110e" opacity="1.00" d=" M 38.56 9.62 C 39.81 8.63 41.24 7.76 42.91 7.93 C 51.74 7.93 60.58 7.89 69.41 7.99 C 76.36 13.56 83.46 18.95 90.51 24.39 C 91.88 25.40 93.05 26.70 93.47 28.39 C 95.90 36.29 98.40 44.17 100.95 52.03 C 101.42 53.69 102.10 55.46 101.47 57.18 C 99.18 64.52 96.62 71.79 94.38 79.15 C 93.65 81.31 93.19 83.82 91.19 85.22 C 84.87 90.23 78.42 95.11 72.15 100.19 C 70.73 101.41 68.99 102.27 67.07 102.10 C 59.06 102.09 51.05 102.10 43.04 102.10 C 39.73 102.38 37.45 99.65 35.01 97.89 C 29.12 93.06 22.65 88.89 17.05 83.74 C 13.53 74.45 11.17 64.70 7.96 55.27 C 10.62 46.16 13.41 37.07 16.13 27.98 C 16.48 26.25 17.98 25.25 19.27 24.25 C 25.73 19.41 32.16 14.54 38.56 9.62 M 25.34 26.93 C 27.71 29.83 30.20 32.62 32.71 35.39 C 35.12 37.62 32.58 40.82 33.68 43.48 C 34.36 43.50 35.71 43.55 36.38 43.57 C 36.84 44.22 37.30 44.88 37.76 45.53 C 34.78 45.42 31.80 45.54 28.83 45.66 C 27.70 47.23 26.71 48.88 25.89 50.63 C 29.25 51.48 33.35 52.64 34.70 56.24 C 35.10 60.45 34.48 64.76 35.63 68.89 C 35.95 70.51 36.76 72.06 36.70 73.73 C 34.54 77.85 31.76 81.64 29.97 85.96 C 33.55 83.60 36.58 80.50 40.19 78.20 C 42.88 78.58 45.22 80.58 48.05 80.82 C 51.15 80.86 52.28 83.93 53.97 85.95 C 56.06 84.52 57.13 81.49 59.90 81.21 C 63.41 80.95 66.44 79.13 69.11 76.96 C 72.79 79.61 76.00 82.93 80.01 85.12 C 77.54 80.65 74.90 76.27 72.27 71.89 C 74.06 67.10 73.72 61.98 73.73 56.97 C 74.85 53.10 79.17 51.71 82.77 51.39 C 81.91 49.78 81.07 48.14 80.25 46.50 C 77.43 46.21 74.60 45.95 71.79 45.51 C 73.32 44.45 75.64 44.27 76.69 42.70 C 76.57 40.80 76.26 38.92 76.11 37.02 C 79.31 34.07 81.89 30.62 84.68 27.32 C 84.49 26.27 84.28 25.22 84.07 24.17 C 83.29 24.15 81.74 24.13 80.96 24.11 C 78.57 27.70 74.80 30.10 72.38 33.69 C 70.25 33.87 67.94 33.09 65.95 34.07 C 65.74 37.54 63.02 39.78 61.00 42.30 C 58.79 40.77 56.82 38.94 55.05 36.92 C 53.28 38.84 51.52 40.97 48.98 41.88 C 47.46 40.13 46.17 38.20 44.52 36.56 C 44.40 35.43 44.28 34.30 44.16 33.18 C 42.05 33.28 39.94 33.38 37.83 33.45 C 35.33 29.84 31.89 27.09 28.93 23.90 C 26.76 22.47 25.23 24.99 25.34 26.93 Z" />
<path fill="#10110e" opacity="1.00" d=" M 29.42 48.68 C 38.31 48.22 48.28 47.57 54.96 40.89 C 57.40 43.36 60.26 45.43 63.58 46.54 C 68.60 48.60 74.16 47.85 79.35 49.06 C 75.81 50.37 71.32 52.49 71.44 56.94 C 71.52 63.55 71.56 71.36 66.10 76.08 C 62.93 79.56 56.82 77.29 54.66 81.99 C 53.23 80.21 51.48 78.37 49.01 78.38 C 43.00 78.05 38.55 72.60 37.74 66.93 C 36.62 62.14 38.82 56.61 35.66 52.38 C 34.27 50.22 31.62 49.66 29.42 48.68 M 48.38 47.58 C 44.73 49.07 42.71 53.21 43.21 57.03 C 44.18 61.94 45.05 67.18 43.63 72.07 C 44.22 72.45 45.38 73.23 45.96 73.61 C 47.07 72.80 48.20 72.03 49.36 71.30 C 49.41 72.11 49.49 73.74 49.53 74.55 C 50.71 74.65 51.88 74.75 53.05 74.84 C 53.25 74.11 53.65 72.64 53.85 71.91 C 54.69 72.73 55.29 73.73 55.81 74.77 C 56.75 74.76 57.70 74.72 58.64 74.63 C 59.12 73.44 59.55 72.23 59.93 71.00 C 61.07 72.90 63.12 74.32 64.80 72.12 C 63.13 66.13 65.57 60.03 65.28 54.04 C 63.82 46.61 54.40 44.92 48.38 47.58 Z" />
<path fill="#10110e" opacity="1.00" d=" M 46.11 61.88 C 48.51 62.72 50.76 64.01 52.48 65.90 C 52.19 68.77 48.81 67.99 46.98 67.14 C 44.71 66.34 45.96 63.56 46.11 61.88 Z" />
<path fill="#10110e" opacity="1.00" d=" M 56.10 65.32 C 58.09 64.08 60.09 62.87 62.16 61.77 C 62.50 63.23 62.61 64.70 62.48 66.18 C 61.23 67.93 58.80 67.71 56.92 68.03 C 56.64 67.12 56.37 66.22 56.10 65.32 Z" />
<path fill="#10110e" opacity="1.00" d=" M 51.95 71.40 C 52.59 70.30 53.22 69.20 53.91 68.14 C 55.03 69.10 56.13 70.08 57.14 71.16 C 56.48 70.66 55.16 69.67 54.49 69.17 C 53.67 69.94 52.82 70.68 51.95 71.40 Z" />
</g>
<g id="#f70904ff">
<path fill="#f70904" opacity="1.00" d=" M 25.34 26.93 C 25.23 24.99 26.76 22.47 28.93 23.90 C 31.89 27.09 35.33 29.84 37.83 33.45 C 39.94 33.38 42.05 33.28 44.16 33.18 C 44.28 34.30 44.40 35.43 44.52 36.56 C 46.17 38.20 47.46 40.13 48.98 41.88 C 51.52 40.97 53.28 38.84 55.05 36.92 C 56.82 38.94 58.79 40.77 61.00 42.30 C 63.02 39.78 65.74 37.54 65.95 34.07 C 67.94 33.09 70.25 33.87 72.38 33.69 C 74.80 30.10 78.57 27.70 80.96 24.11 C 81.74 24.13 83.29 24.15 84.07 24.17 C 84.28 25.22 84.49 26.27 84.68 27.32 C 81.89 30.62 79.31 34.07 76.11 37.02 C 76.26 38.92 76.57 40.80 76.69 42.70 C 75.64 44.27 73.32 44.45 71.79 45.51 C 74.60 45.95 77.43 46.21 80.25 46.50 C 81.07 48.14 81.91 49.78 82.77 51.39 C 79.17 51.71 74.85 53.10 73.73 56.97 C 73.72 61.98 74.06 67.10 72.27 71.89 C 74.90 76.27 77.54 80.65 80.01 85.12 C 76.00 82.93 72.79 79.61 69.11 76.96 C 66.44 79.13 63.41 80.95 59.90 81.21 C 57.13 81.49 56.06 84.52 53.97 85.95 C 52.28 83.93 51.15 80.86 48.05 80.82 C 45.22 80.58 42.88 78.58 40.19 78.20 C 36.58 80.50 33.55 83.60 29.97 85.96 C 31.76 81.64 34.54 77.85 36.70 73.73 C 36.76 72.06 35.95 70.51 35.63 68.89 C 34.48 64.76 35.10 60.45 34.70 56.24 C 33.35 52.64 29.25 51.48 25.89 50.63 C 26.71 48.88 27.70 47.23 28.83 45.66 C 31.80 45.54 34.78 45.42 37.76 45.53 C 37.30 44.88 36.84 44.22 36.38 43.57 C 35.71 43.55 34.36 43.50 33.68 43.48 C 32.58 40.82 35.12 37.62 32.71 35.39 C 30.20 32.62 27.71 29.83 25.34 26.93 M 29.42 48.68 C 31.62 49.66 34.27 50.22 35.66 52.38 C 38.82 56.61 36.62 62.14 37.74 66.93 C 38.55 72.60 43.00 78.05 49.01 78.38 C 51.48 78.37 53.23 80.21 54.66 81.99 C 56.82 77.29 62.93 79.56 66.10 76.08 C 71.56 71.36 71.52 63.55 71.44 56.94 C 71.32 52.49 75.81 50.37 79.35 49.06 C 74.16 47.85 68.60 48.60 63.58 46.54 C 60.26 45.43 57.40 43.36 54.96 40.89 C 48.28 47.57 38.31 48.22 29.42 48.68 Z" />
<path fill="#f70904" opacity="1.00" d=" M 48.38 47.58 C 54.40 44.92 63.82 46.61 65.28 54.04 C 65.57 60.03 63.13 66.13 64.80 72.12 C 63.12 74.32 61.07 72.90 59.93 71.00 C 59.55 72.23 59.12 73.44 58.64 74.63 C 57.70 74.72 56.75 74.76 55.81 74.77 C 55.29 73.73 54.69 72.73 53.85 71.91 C 53.65 72.64 53.25 74.11 53.05 74.84 C 51.88 74.75 50.71 74.65 49.53 74.55 C 49.49 73.74 49.41 72.11 49.36 71.30 C 48.20 72.03 47.07 72.80 45.96 73.61 C 45.38 73.23 44.22 72.45 43.63 72.07 C 45.05 67.18 44.18 61.94 43.21 57.03 C 42.71 53.21 44.73 49.07 48.38 47.58 M 46.11 61.88 C 45.96 63.56 44.71 66.34 46.98 67.14 C 48.81 67.99 52.19 68.77 52.48 65.90 C 50.76 64.01 48.51 62.72 46.11 61.88 M 56.10 65.32 C 56.37 66.22 56.64 67.12 56.92 68.03 C 58.80 67.71 61.23 67.93 62.48 66.18 C 62.61 64.70 62.50 63.23 62.16 61.77 C 60.09 62.87 58.09 64.08 56.10 65.32 M 51.95 71.40 C 52.82 70.68 53.67 69.94 54.49 69.17 C 55.16 69.67 56.48 70.66 57.14 71.16 C 56.13 70.08 55.03 69.10 53.91 68.14 C 53.22 69.20 52.59 70.30 51.95 71.40 Z" />
</g>
</svg>
